<svg width="533" height="533" viewBox="0 0 533 533" fill="none" xmlns="http://www.w3.org/2000/svg">
<circle cx="266.5" cy="266.5" r="266.5" fill="white"/>
<path d="M311.406 322.954L286.766 289.018C285.994 287.954 284.423 287.912 283.595 288.933L159.674 441.694C158.363 443.31 160.085 445.605 162.003 444.797L343.906 368.208C345.124 367.695 345.518 366.163 344.699 365.125L311.406 322.954Z" fill="#212529"/>
<path d="M188.421 266.519L254.835 301.64C255.949 302.229 256.247 303.688 255.454 304.667L185.504 390.988C184.733 391.94 183.295 391.981 182.471 391.075L68.5775 265.917C67.3882 264.61 68.3539 262.516 70.1199 262.572L187.549 266.288C187.853 266.298 188.152 266.377 188.421 266.519Z" fill="#212529"/>
<path d="M285.968 141.671L239.939 106.219C238.733 105.29 238.966 103.407 240.363 102.8L309.46 72.8006C310.174 72.4908 311.002 72.6228 311.584 73.1389L378.084 132.126C379.461 133.347 378.597 135.622 376.757 135.622L375.817 135.622L287.334 142.081C286.844 142.117 286.357 141.971 285.968 141.671Z" fill="#212529"/>
<path d="M424.712 279.151L372.655 375.757C371.96 377.048 370.159 377.176 369.287 375.998L187.995 131.014C187.219 129.964 187.639 128.464 188.848 127.972L227.251 112.326C227.939 112.046 228.725 112.17 229.293 112.648L424.239 276.672C424.964 277.282 425.162 278.317 424.712 279.151Z" fill="#212529"/>
</svg>
