<svg width="264" height="250" viewBox="0 0 264 250" fill="none" xmlns="http://www.w3.org/2000/svg">
<path d="M170.5 169.216L155.169 148.101C154.397 147.037 152.826 146.995 151.998 148.016L74.5293 243.514C73.2182 245.13 74.9405 247.425 76.8587 246.617L190.578 198.736C191.796 198.223 192.191 196.691 191.372 195.654L170.5 169.216Z" fill="white"/>
<path d="M91.4068 132.933L133.287 155.079C134.401 155.668 134.699 157.128 133.906 158.106L89.9034 212.407C89.1323 213.359 87.6947 213.4 86.8703 212.494L15.1778 133.711C13.9885 132.404 14.9542 130.31 16.7203 130.366L90.5351 132.702C90.8394 132.711 91.1376 132.79 91.4068 132.933Z" fill="white"/>
<path d="M153.895 52.2506L125.41 30.311C124.203 29.3817 124.437 27.4985 125.834 26.892L168.83 8.22415C169.544 7.91439 170.372 8.04636 170.954 8.56249L213.008 45.865C214.053 46.792 213.397 48.5193 212 48.5193L155.261 52.6608C154.771 52.6966 154.285 52.5505 153.895 52.2506Z" fill="white"/>
<path d="M243.228 141.504L210.495 202.251C209.799 203.541 207.998 203.67 207.126 202.492L91.532 46.2864C90.7555 45.2371 91.1761 43.7371 92.3851 43.2446L115.882 33.6718C116.569 33.3917 117.356 33.5156 117.924 33.9937L242.755 139.025C243.48 139.635 243.678 140.67 243.228 141.504Z" fill="white"/>
</svg>
