<svg width="394" height="36" viewBox="0 0 394 36" fill="none" xmlns="http://www.w3.org/2000/svg">
<path d="M24.4847 24.5938C24.4847 26.7188 23.9456 28.6094 22.8675 30.2656C21.7894 31.9062 20.2347 33.1875 18.2034 34.1094C16.1722 35.0156 13.7894 35.4688 11.055 35.4688C8.77374 35.4688 6.85968 35.3125 5.31281 35C3.76593 34.6719 2.15656 34.1094 0.48468 33.3125V25.0625C2.25031 25.9688 4.08624 26.6797 5.99249 27.1953C7.89874 27.6953 9.64874 27.9453 11.2425 27.9453C12.6175 27.9453 13.6253 27.7109 14.2659 27.2422C14.9066 26.7578 15.2269 26.1406 15.2269 25.3906C15.2269 24.9219 15.0941 24.5156 14.8284 24.1719C14.5784 23.8125 14.1644 23.4531 13.5862 23.0938C13.0237 22.7344 11.5081 22 9.03937 20.8906C6.80499 19.875 5.12531 18.8906 4.00031 17.9375C2.89093 16.9844 2.06281 15.8906 1.51593 14.6562C0.98468 13.4219 0.719055 11.9609 0.719055 10.2734C0.719055 7.11719 1.86749 4.65625 4.16437 2.89062C6.46124 1.125 9.61749 0.242188 13.6331 0.242188C17.18 0.242188 20.7972 1.0625 24.4847 2.70312L21.6487 9.85156C18.4456 8.38281 15.68 7.64844 13.3519 7.64844C12.1487 7.64844 11.2737 7.85938 10.7269 8.28125C10.18 8.70312 9.90656 9.22656 9.90656 9.85156C9.90656 10.5234 10.2503 11.125 10.9378 11.6562C11.6409 12.1875 13.5316 13.1562 16.6097 14.5625C19.5628 15.8906 21.6097 17.3203 22.7503 18.8516C23.9066 20.3672 24.4847 22.2812 24.4847 24.5938ZM49.4053 35H29.0616V0.734375H49.4053V8.16406H38.3194V13.5547H48.585V20.9844H38.3194V27.4531H49.4053V35ZM83.8181 0.734375V21.3594C83.8181 25.8438 82.5447 29.3203 79.9978 31.7891C77.4666 34.2422 73.8103 35.4688 69.0291 35.4688C64.3572 35.4688 60.7634 34.2734 58.2478 31.8828C55.7478 29.4922 54.4978 26.0547 54.4978 21.5703V0.734375H63.8025V20.8438C63.8025 23.2656 64.2556 25.0234 65.1619 26.1172C66.0681 27.2109 67.4041 27.7578 69.1697 27.7578C71.0603 27.7578 72.4275 27.2188 73.2712 26.1406C74.1306 25.0469 74.5603 23.2656 74.5603 20.7969V0.734375H83.8181ZM122.918 35H110.778L98.2622 10.8594H98.0512C98.3481 14.6562 98.4966 17.5547 98.4966 19.5547V35H90.2934V0.734375H102.387L114.856 24.5469H114.997C114.778 21.0938 114.668 18.3203 114.668 16.2266V0.734375H122.918V35ZM144.722 35H135.464V8.30469H127.097V0.734375H153.066V8.30469H144.722V35ZM178.267 35L176.58 28.5781H165.447L163.713 35H153.541L164.721 0.59375H177.072L188.392 35H178.267ZM174.658 20.9844L173.182 15.3594C172.838 14.1094 172.416 12.4922 171.916 10.5078C171.432 8.52344 171.111 7.10156 170.955 6.24219C170.814 7.03906 170.533 8.35156 170.111 10.1797C169.705 12.0078 168.791 15.6094 167.369 20.9844H174.658ZM191.399 35V0.734375H200.704V35H191.399ZM248.436 35H237.982L231.209 21.8984L228.467 23.5391V35H219.162V0.734375H228.467V15.6172C228.936 14.6953 229.881 13.2344 231.303 11.2344L238.498 0.734375H248.623L237.818 16.0859L248.436 35ZM271.786 35H251.442V0.734375H271.786V8.16406H260.7V13.5547H270.966V20.9844H260.7V27.4531H271.786V35ZM286.324 22.5312V35H277.066V0.734375H288.292C297.605 0.734375 302.261 4.10938 302.261 10.8594C302.261 14.8281 300.324 17.8984 296.449 20.0703L306.433 35H295.933L288.667 22.5312H286.324ZM286.324 15.5703H288.058C291.292 15.5703 292.91 14.1406 292.91 11.2812C292.91 8.92187 291.324 7.74219 288.152 7.74219H286.324V15.5703ZM323.947 35H314.69V8.30469H306.322V0.734375H332.291V8.30469H323.947V35ZM357.493 35L355.806 28.5781H344.673L342.938 35H332.767L343.946 0.59375H356.298L367.618 35H357.493ZM353.884 20.9844L352.407 15.3594C352.063 14.1094 351.642 12.4922 351.142 10.5078C350.657 8.52344 350.337 7.10156 350.181 6.24219C350.04 7.03906 349.759 8.35156 349.337 10.1797C348.931 12.0078 348.017 15.6094 346.595 20.9844H353.884ZM393.031 24.5938C393.031 26.7188 392.492 28.6094 391.414 30.2656C390.336 31.9062 388.781 33.1875 386.75 34.1094C384.718 35.0156 382.336 35.4688 379.601 35.4688C377.32 35.4688 375.406 35.3125 373.859 35C372.312 34.6719 370.703 34.1094 369.031 33.3125V25.0625C370.797 25.9688 372.633 26.6797 374.539 27.1953C376.445 27.6953 378.195 27.9453 379.789 27.9453C381.164 27.9453 382.172 27.7109 382.812 27.2422C383.453 26.7578 383.773 26.1406 383.773 25.3906C383.773 24.9219 383.64 24.5156 383.375 24.1719C383.125 23.8125 382.711 23.4531 382.133 23.0938C381.57 22.7344 380.054 22 377.586 20.8906C375.351 19.875 373.672 18.8906 372.547 17.9375C371.437 16.9844 370.609 15.8906 370.062 14.6562C369.531 13.4219 369.265 11.9609 369.265 10.2734C369.265 7.11719 370.414 4.65625 372.711 2.89062C375.008 1.125 378.164 0.242188 382.179 0.242188C385.726 0.242188 389.343 1.0625 393.031 2.70312L390.195 9.85156C386.992 8.38281 384.226 7.64844 381.898 7.64844C380.695 7.64844 379.82 7.85938 379.273 8.28125C378.726 8.70312 378.453 9.22656 378.453 9.85156C378.453 10.5234 378.797 11.125 379.484 11.6562C380.187 12.1875 382.078 13.1562 385.156 14.5625C388.109 15.8906 390.156 17.3203 391.297 18.8516C392.453 20.3672 393.031 22.2812 393.031 24.5938Z" fill="white"/>
</svg>
