<svg width="703" height="250" viewBox="0 0 703 250" fill="none" xmlns="http://www.w3.org/2000/svg">
<path d="M170.5 169.216L155.169 148.101C154.397 147.037 152.826 146.995 151.998 148.016L74.5293 243.514C73.2182 245.13 74.9405 247.425 76.8586 246.617L190.578 198.736C191.796 198.223 192.19 196.691 191.372 195.654L170.5 169.216Z" fill="white"/>
<path d="M91.4067 132.933L133.287 155.079C134.401 155.668 134.699 157.128 133.906 158.106L89.9034 212.407C89.1323 213.359 87.6947 213.4 86.8703 212.494L15.1777 133.711C13.9885 132.404 14.9542 130.31 16.7202 130.366L90.535 132.702C90.8394 132.711 91.1375 132.79 91.4067 132.933Z" fill="white"/>
<path d="M153.895 52.2506L125.41 30.311C124.203 29.3817 124.437 27.4985 125.834 26.892L168.83 8.22415C169.544 7.91439 170.372 8.04636 170.954 8.56249L213.008 45.865C214.053 46.792 213.397 48.5193 212 48.5193L155.261 52.6608C154.771 52.6966 154.285 52.5505 153.895 52.2506Z" fill="white"/>
<path d="M243.228 141.504L210.494 202.251C209.799 203.541 207.998 203.67 207.126 202.492L91.532 46.2864C90.7554 45.2371 91.1761 43.7371 92.3851 43.2446L115.882 33.6718C116.569 33.3917 117.356 33.5156 117.924 33.9937L242.755 139.025C243.48 139.635 243.678 140.67 243.228 141.504Z" fill="white"/>
<path d="M311.072 99.8402C311.072 103.753 310.08 107.234 308.095 110.283C306.11 113.304 303.247 115.663 299.507 117.36C295.767 119.029 291.38 119.863 286.346 119.863C282.145 119.863 278.621 119.575 275.773 119C272.925 118.396 269.962 117.36 266.884 115.893V100.703C270.135 102.372 273.515 103.681 277.025 104.63C280.534 105.551 283.756 106.011 286.691 106.011C289.222 106.011 291.078 105.58 292.258 104.716C293.437 103.825 294.027 102.688 294.027 101.307C294.027 100.444 293.782 99.6964 293.293 99.0635C292.833 98.4018 292.071 97.7401 291.006 97.0784C289.97 96.4168 287.18 95.0647 282.634 93.0221C278.521 91.1521 275.428 89.3397 273.357 87.5849C271.314 85.83 269.789 83.8162 268.782 81.5435C267.804 79.2708 267.315 76.5809 267.315 73.4739C267.315 67.6627 269.43 63.1317 273.659 59.8808C277.888 56.63 283.699 55.0046 291.092 55.0046C297.623 55.0046 304.283 56.5149 311.072 59.5356L305.851 72.6972C299.953 69.9929 294.861 68.6408 290.575 68.6408C288.359 68.6408 286.748 69.0292 285.741 69.806C284.735 70.5827 284.231 71.5464 284.231 72.6972C284.231 73.9342 284.864 75.0418 286.13 76.0199C287.424 76.9981 290.905 78.7817 296.573 81.3709C302.01 83.8162 305.779 86.4485 307.879 89.2678C310.008 92.0583 311.072 95.5825 311.072 99.8402ZM356.955 119H319.499V55.9108H356.955V69.5902H336.544V79.5153H355.445V93.1947H336.544V105.105H356.955V119ZM420.316 55.9108V93.8851C420.316 102.142 417.971 108.543 413.282 113.088C408.621 117.605 401.889 119.863 393.086 119.863C384.485 119.863 377.868 117.662 373.236 113.261C368.633 108.859 366.332 102.53 366.332 94.2735V55.9108H383.463V92.9358C383.463 97.3949 384.298 100.631 385.966 102.645C387.635 104.659 390.094 105.666 393.345 105.666C396.826 105.666 399.343 104.673 400.897 102.688C402.479 100.674 403.27 97.3949 403.27 92.8495V55.9108H420.316ZM492.306 119H469.953L446.91 74.5527H446.521C447.068 81.5435 447.341 86.88 447.341 90.5624V119H432.238V55.9108H454.505L477.462 99.7539H477.721C477.318 93.3961 477.117 88.2897 477.117 84.4347V55.9108H492.306V119ZM532.45 119H515.405V69.8491H500V55.9108H547.813V69.8491H532.45V119ZM594.214 119L591.107 107.176H570.61L567.416 119H548.688L569.272 55.6519H592.013L612.856 119H594.214ZM587.569 93.1947L584.85 82.8381C584.217 80.5366 583.44 77.5591 582.52 73.9055C581.628 70.2519 581.038 67.6339 580.75 66.0517C580.491 67.5189 579.974 69.9354 579.197 73.3013C578.449 76.6672 576.766 83.2984 574.148 93.1947H587.569ZM618.392 119V55.9108H635.523V119H618.392ZM323.716 193H304.47L291.999 168.878L286.95 171.898V193H269.818V129.911H286.95V157.313C287.813 155.615 289.553 152.926 292.171 149.243L305.419 129.911H324.061L304.168 158.176L323.716 193ZM366.708 193H329.251V129.911H366.708V143.59H346.297V153.515H365.198V167.195H346.297V179.105H366.708V193ZM393.475 170.043V193H376.429V129.911H397.1C414.246 129.911 422.819 136.125 422.819 148.553C422.819 155.86 419.251 161.513 412.117 165.512L430.5 193H411.167L397.79 170.043H393.475ZM393.475 157.226H396.668C402.623 157.226 405.601 154.594 405.601 149.329C405.601 144.985 402.681 142.813 396.841 142.813H393.475V157.226ZM462.747 193H445.702V143.849H430.296V129.911H478.109V143.849H462.747V193ZM524.51 193L521.403 181.176H500.906L497.713 193H478.984L499.568 129.652H522.31L543.152 193H524.51ZM517.865 167.195L515.146 156.838C514.513 154.537 513.737 151.559 512.816 147.905C511.924 144.252 511.334 141.634 511.047 140.052C510.788 141.519 510.27 143.935 509.493 147.301C508.745 150.667 507.062 157.298 504.444 167.195H517.865ZM589.942 173.84C589.942 177.753 588.949 181.234 586.964 184.283C584.979 187.304 582.117 189.663 578.377 191.36C574.637 193.029 570.25 193.863 565.215 193.863C561.015 193.863 557.491 193.575 554.643 193C551.795 192.396 548.832 191.36 545.754 189.893V174.703C549.004 176.372 552.385 177.681 555.894 178.63C559.404 179.551 562.626 180.011 565.561 180.011C568.092 180.011 569.948 179.58 571.127 178.716C572.307 177.825 572.897 176.688 572.897 175.307C572.897 174.444 572.652 173.696 572.163 173.063C571.703 172.402 570.94 171.74 569.876 171.078C568.84 170.417 566.05 169.065 561.504 167.022C557.39 165.152 554.298 163.34 552.226 161.585C550.184 159.83 548.659 157.816 547.652 155.543C546.674 153.271 546.185 150.581 546.185 147.474C546.185 141.663 548.3 137.132 552.529 133.881C556.757 130.63 562.569 129.005 569.962 129.005C576.493 129.005 583.153 130.515 589.942 133.536L584.72 146.697C578.823 143.993 573.731 142.641 569.444 142.641C567.229 142.641 565.618 143.029 564.611 143.806C563.604 144.583 563.101 145.546 563.101 146.697C563.101 147.934 563.734 149.042 565 150.02C566.294 150.998 569.775 152.782 575.443 155.371C580.88 157.816 584.648 160.449 586.749 163.268C588.877 166.058 589.942 169.582 589.942 173.84Z" fill="white"/>
</svg>
